<svg version="1.1" id="katman_1" xmlns="http://www.w3.org/2000/svg" xmlns:xlink="http://www.w3.org/1999/xlink" x="0px" y="0px"
	 viewBox="0 0 500 500" style="enable-background:new 0 0 500 500;" xml:space="preserve">
<style type="text/css">
	.st0{fill:#FFFFFF;}
</style>
<g>
	<polygon class="st0" points="449.1,400.7 449.7,399.9 445.7,405.1 	"/>
	<circle class="st0" cx="250.5" cy="175.8" r="74.7"/>
	<path class="st0" d="M250.5,1.5C113,1.5,1.5,113,1.5,250.5c0,56,18.5,107.8,49.8,149.4l0.6,0.7c2.5,3.4,5.2,6.7,7.9,9.9l4,4.7
		c4.9,5.5,10,10.8,15.3,15.9l2.4,2.2c3.1,2.8,6.2,5.6,9.4,8.3l4.2,3.5l4.2,3.3l3.4,2.5l3.6,2.6l1.9,1.4l5.5,3.7l1.7,1.1
		c4.4,2.9,9,5.6,13.7,8.2l0.6,0.3l1.6,0.8c2,1.1,3.9,2.1,5.9,3.1l0.3,0.2l4.6,2.3l1.7,0.8l3.6,1.7c1.2,0.5,2.4,1.1,3.7,1.6l3.5,1.5
		l5.4,2.2l2.1,0.8c3.1,1.2,6.1,2.3,9.2,3.3c2.2,0.8,4.4,1.4,6.7,2.1l1.5,0.5c2.4,0.7,4.7,1.4,7.1,2l1.3,0.3c2.4,0.6,4.7,1.2,7.2,1.8
		l1.3,0.3l1.4,0.3l7.1,1.4c4.5,0.8,9,1.5,13.6,2.1l2.5,0.3l4.5,0.5l4.7,0.4l3.1,0.2c2.4,0.2,4.7,0.3,7.1,0.4
		c3.4,0.1,6.9,0.2,10.3,0.2c3,0,6-0.1,9-0.2l1.4-0.1l7.1-0.4l3.1-0.3l4.8-0.4l4.3-0.5l2.9-0.4c4.5-0.6,8.9-1.3,13.3-2.1l7.1-1.4
		l1.4-0.3l1.3-0.3c2.5-0.5,4.9-1.2,7.4-1.8l0.9-0.2c2.5-0.7,5-1.4,7.5-2.1l1.2-0.3l6.8-2.2l1.6-0.6c2.5-0.8,5-1.7,7.4-2.7l0.5-0.2
		c1.3-0.5,2.6-1,3.9-1.5l3-1.2l3.9-1.7c1.3-0.6,2.7-1.2,4-1.8l3.1-1.4l4.5-2.2l2.6-1.4l5.1-2.7l1.9-1l0.6-0.3
		c4.7-2.6,9.2-5.3,13.7-8.2l1.7-1.1c1.9-1.2,3.6-2.5,5.4-3.7l2-1.4l5.1-3.7c0.6-0.4,1.1-0.8,1.6-1.2l4.4-3.4l4.2-3.5
		c3.5-2.9,6.8-5.9,10.1-8.9l1.5-1.4c1.4-1.4,2.9-2.7,4.2-4.1l1.9-1.9c1.3-1.3,2.5-2.5,3.7-3.8l2.4-2.5c1.2-1.2,2.3-2.5,3.4-3.7
		c4.4-4.9,8.5-10,12.5-15.3c31.3-41.6,49.8-93.3,49.8-149.4C499.5,113,388,1.5,250.5,1.5z M415.2,362.6l-2-1.7
		c-43.7-37.7-100.5-60.5-162.7-60.5s-119.1,22.8-162.7,60.5l-2,1.7C64,330.6,51.3,292,51.3,250.5c0-110,89.2-199.2,199.2-199.2
		s199.2,89.2,199.2,199.2C449.7,292,437,330.6,415.2,362.6z"/>
</g>
</svg>
