<?xml version="1.0" encoding="UTF-8"?>
<svg viewBox="0 0 24 24" version="1.1" xmlns="http://www.w3.org/2000/svg" xmlns:xlink="http://www.w3.org/1999/xlink">

        <path d="M5.38496499,16.5004184 C7.1478569,14.9442607 9.46365649,14 12,14 C14.5363435,14 16.8521431,14.9442607 18.615035,16.5004184 C19.4890401,15.2182297 20,13.6687854 20,12 C20,7.581722 16.418278,4 12,4 C7.581722,4 4,7.581722 4,12 C4,13.6687854 4.51095985,15.2182297 5.38496499,16.5004184 Z M12,22 C6.4771525,22 2,17.5228475 2,12 C2,6.4771525 6.4771525,2 12,2 C17.5228475,2 22,6.4771525 22,12 C22,17.5228475 17.5228475,22 12,22 Z M9,9.00000083 C9,7.34906888 10.3490667,6.00000167 12,6 C13.6509317,6 15,7.34906721 15,8.99999917 C15,10.6509311 13.6509317,12 12,12 C10.3490667,12 9,10.6509328 9,9.00000083 Z" id="path-1"></path>

</svg>
