<?xml version="1.0" encoding="UTF-8"?>
<svg viewBox="0 0 36 36" version="1.1" xmlns="http://www.w3.org/2000/svg" xmlns:xlink="http://www.w3.org/1999/xlink">
    <defs>
        <path d="M27.5,8.97507764 L29.663119,10 L29.25,7.82917961 L31,6.29179607 L28.5815595,5.97507764 L27.5,4 L26.4184405,5.97507764 L24,6.29179607 L25.75,7.82917961 L25.336881,10 L27.5,8.97507764 Z M25.7703874,10.8967583 C25.2958967,11.1273394 24.7090231,10.9587138 24.4595686,10.5201225 C24.3602345,10.3454731 24.3259567,10.1454262 24.362042,9.95095129 L24.6923565,8.17077965 L23.2931216,6.9100551 C22.9092505,6.56418347 22.9013958,5.99615435 23.2755776,5.64132655 C23.4245788,5.50003225 23.6198151,5.40808077 23.8310617,5.37970727 L25.7647568,5.11998372 L26.6295316,3.50033006 C26.866777,3.05598855 27.4487961,2.87355284 27.9295077,3.09284848 C28.1209296,3.18017316 28.27587,3.32339094 28.3703423,3.50033006 L29.2351171,5.11998372 L31.1688123,5.37970727 C31.699309,5.45096074 32.0668713,5.90623839 31.9897856,6.39659835 C31.9590897,6.59186226 31.8596118,6.7723272 31.7067524,6.9100551 L30.3075174,8.17077965 L30.637832,9.95095129 C30.7284516,10.4393299 30.3735985,10.9031426 29.8452453,10.9869061 C29.6348523,11.0202612 29.4184312,10.9885769 29.2294865,10.8967583 L27.499937,10.0562752 L25.7703874,10.8967583 Z" id="path-1"></path>
    </defs>
    <g id="Icons/Bana-Ozel" stroke="none" stroke-width="1" fill="none" fill-rule="evenodd">
        <g id="noun_profile_1594258" transform="translate(10.000000, 8.000000)" fill="#2855AC" fill-rule="nonzero">
            <g id="Shape">
                <path d="M16,20.1225812 C16,20.6071662 15.6020309,21 15.1111111,21 C14.6201913,21 12.9250105,20.6071662 12.9250105,20.1225812 C12.9250105,16.7304858 11.4364384,14.8223232 8,14.8223232 C4.56356156,14.8223232 2.91063158,16.7304858 2.91063158,20.1225812 C2.91063158,20.6071662 1.37980867,21 0.888888889,21 C0.397969111,21 0,20.6071662 0,20.1225812 C0,15.7613157 3.581722,12.2258115 8,12.2258115 C12.418278,12.2258115 16,15.7613157 16,20.1225812 Z M7.98907792,11.3848827 C4.80413149,11.3848827 2.22222222,8.83628988 2.22222222,5.69244136 C2.22222222,2.54859283 4.80413149,0 7.98907792,0 C11.1740244,0 13.7559336,2.54859283 13.7559336,5.69244136 C13.7559336,8.83628988 11.1740244,11.3848827 7.98907792,11.3848827 Z M8,8.75428481 C9.7182192,8.75428481 11.1111111,7.3793665 11.1111111,5.68331885 C11.1111111,3.98727121 9.7182192,2.61235289 8,2.61235289 C6.2817808,2.61235289 4.88888889,3.98727121 4.88888889,5.68331885 C4.88888889,7.3793665 6.2817808,8.75428481 8,8.75428481 Z"></path>
            </g>
        </g>
        <mask id="mask-2" fill="white">
            <use xlink:href="#path-1"></use>
        </mask>
        <use id="Star" stroke="#2855AC" stroke-width="0.675" fill="#2855AC" fill-rule="nonzero" xlink:href="#path-1"></use>
    </g>
</svg>