<?xml version="1.0" encoding="utf-8"?>
<!-- Generator: Adobe Illustrator 22.0.1, SVG Export Plug-In . SVG Version: 6.00 Build 0)  -->
<svg version="1.1" id="Layer_1" xmlns="http://www.w3.org/2000/svg" xmlns:xlink="http://www.w3.org/1999/xlink" x="0px" y="0px"
	 viewBox="0 0 500 500" style="enable-background:new 0 0 500 500;" xml:space="preserve">
<style type="text/css">
	.st0{fill:#3C1A00;}
</style>
<path class="st0" d="M415,302.9v-86.2c0-78.8-51.7-142.8-120.7-162.5v-4.9c0-24.6-19.7-44.3-44.3-44.3s-44.3,19.7-44.3,44.3v7.4
	C136.7,76.4,85,142.8,85,219.2c0,0,0,78.8,0,86.2c-19.7,12.3-32,34.5-32,59.1c0,36.9,29.5,66.5,66.5,66.5l61.6-2.5
	c0,36.9,29.5,66.5,66.5,66.5s66.5-29.5,66.5-66.5h66.5c36.9,0,66.5-29.5,66.5-66.5C447,337.4,434.7,315.2,415,302.9z M250,453.1
	c-12.3,0-22.2-9.8-22.2-22.2h44.3C272.2,443.2,262.3,453.1,250,453.1z M383,386.6H119.5c-12.3,0-22.2-9.8-22.2-22.2
	c0-9.8,7.4-19.7,17.2-22.2l4.9-2.5c4.9-2.5,9.8-7.4,9.8-14.8V216.7c0-68.9,54.2-123.1,120.7-123.1s120.7,54.2,120.7,123.1v108.3
	c0,7.4,4.9,12.3,12.3,14.8l4.9,2.5c9.8,2.5,17.2,12.3,17.2,22.2C405.1,376.8,395.3,386.6,383,386.6z"/>
</svg>
