<svg viewBox="0 0 15 14" xmlns="http://www.w3.org/2000/svg">
    <path d="M11.188 1.688h-.727V1.18a.603.603 0 0 0-.608-.598.603.603 0 0 0-.608.598v.507h-4.49V1.18a.603.603 0 0 0-.608-.598.603.603 0 0 0-.608.598v.507h-.727c-1.23 0-2.229.981-2.229 2.192v7.344c0 1.211.998 2.193 2.229 2.193h8.376c1.23 0 2.229-.982 2.229-2.193V3.88c0-1.21-.998-2.192-2.229-2.192zM2.814 2.884h.727v.905c0 .33.273.598.608.598a.603.603 0 0 0 .608-.598v-.905h4.488v.905c0 .33.272.598.608.598a.603.603 0 0 0 .608-.598v-.905h.727c.56 0 1.013.446 1.013.996v1.814H1.799V3.88c0-.264.107-.517.297-.704.19-.187.447-.292.716-.292h.002zm8.374 9.337H2.812c-.56 0-1.013-.447-1.013-.997V6.89h10.402v4.334c0 .55-.454.997-1.013.997z" fill="" fill-rule="nonzero"/>
</svg>
