<?xml version="1.0" encoding="UTF-8"?>
<svg viewBox="0 0 24 24" version="1.1" xmlns="http://www.w3.org/2000/svg" xmlns:xlink="http://www.w3.org/1999/xlink">

        <path d="M14.9922414,12 L15.6,6.22222222 L12.324021,6.22222222 L12.8796699,12 L14.9922414,12 Z M16.8922414,12 L19.0234764,12 L20.67427,6.22222222 L17.6,6.22222222 L16.8922414,12 Z M9.17469698,14 L9.28031135,14.4135449 C9.41851764,14.954707 9.90599306,15.3333333 10.4645246,15.3333333 L19.7777778,15.3333333 C20.3300625,15.3333333 20.7777778,15.7810486 20.7777778,16.3333333 C20.7777778,16.8856181 20.3300625,17.3333333 19.7777778,17.3333333 L10.4645246,17.3333333 C8.99203238,17.3333333 7.70686991,16.3351367 7.34250788,14.9084365 L4.55662486,4 L2,4 C1.44771525,4 1,3.55228475 1,3 C1,2.44771525 1.44771525,2 2,2 L5.16073145,2 C5.71926298,2 6.2067384,2.37862629 6.34494468,2.91978846 L6.67757055,4.22222222 L16.4272387,4.22222222 C16.4378472,4.22205278 16.448483,4.22205203 16.4591465,4.22222222 L21.4107867,4.22222222 C22.2085313,4.22222222 22.8552311,4.86892203 22.8552311,5.66666667 C22.8552311,5.80087943 22.8365257,5.93443729 22.7996546,6.06348607 L20.8314006,12.952375 C20.6542286,13.5724772 20.0874488,14 19.4425327,14 L9.17469698,14 Z M10.1678744,6.22222222 L7.18834641,6.22222222 L8.66460787,12.002689 C8.68900786,12.0009068 8.71365091,12 8.73850575,12 L10.9777682,12 L10.1678744,6.22222222 Z M10,22.5 C8.8954305,22.5 8,21.6045695 8,20.5 C8,19.3954305 8.8954305,18.5 10,18.5 C11.1045695,18.5 12,19.3954305 12,20.5 C12,21.6045695 11.1045695,22.5 10,22.5 Z M18,22.5 C16.8954305,22.5 16,21.6045695 16,20.5 C16,19.3954305 16.8954305,18.5 18,18.5 C19.1045695,18.5 20,19.3954305 20,20.5 C20,21.6045695 19.1045695,22.5 18,22.5 Z" id="path-1"></path>

</svg>
