<?xml version="1.0" encoding="UTF-8"?>
<svg viewBox="0 0 36 36" version="1.1" xmlns="http://www.w3.org/2000/svg" xmlns:xlink="http://www.w3.org/1999/xlink">
            <path d="M18.5,2 C12.7102161,2 8,6.7919904 8,12.6822911 C8,18.5722793 12.7102161,23.3645822 18.5,23.3645822 C24.2894768,23.3645822 29,18.5722793 29,12.6822911 C29,6.7919904 24.2894768,2 18.5,2 Z M18.5,21.2631489 C13.8493743,21.2631489 10.0655728,17.4136566 10.0655728,12.6822911 C10.0655728,7.95092558 13.8493743,4.10143329 18.5,4.10143329 C23.1509943,4.10143329 26.9344272,7.95092558 26.9344272,12.6822911 C26.9344272,17.4136566 23.1509943,21.2631489 18.5,21.2631489 Z" id="Shape" fill="" fill-rule="nonzero"></path>
            <path d="M25.8313918,32.5317514 L25.3149833,20.0632138 L23.2514993,20.1514636 L23.7018056,31.0193794 L19.4353838,27.2795119 C18.9021426,26.7727004 18.0976117,26.7720129 17.5640018,27.2795119 L13.2978873,31.0190044 L13.7481936,20.1514636 L11.6843409,20.0632138 L11.1679324,32.5317514 C11.1675638,32.5464388 11.1672566,32.5611888 11.1672566,32.5758763 C11.1672566,33.1323752 11.4849898,33.6406241 11.9769479,33.8703737 C12.4713019,34.1022482 13.0393144,34.0192484 13.4593341,33.6518116 L18.5,29.233508 L23.5420789,33.6534991 C23.8037234,33.8814987 24.1235453,33.9995609 24.4471147,33.9995609 C24.6419812,33.9995609 24.8378306,33.957186 25.0230521,33.8703112 C25.5146416,33.6405616 25.8324362,33.1323752 25.8324362,32.5758138 C25.8324362,32.5611263 25.832129,32.5464388 25.8313918,32.5317514 Z" id="Path" fill="" fill-rule="nonzero"></path>
            <path d="M23.0862436,9.4874225 C22.6827495,9.07692333 22.0293447,9.07692333 21.625912,9.4874225 L17.1277638,14.0636633 L15.034976,11.9086677 C14.6339393,11.495731 13.9801658,11.4915435 13.5742758,11.8995427 C13.1683858,12.3075419 13.1642698,12.9726655 13.5653066,13.3856022 L16.3882294,16.2925964 C16.5816829,16.4919085 16.8447404,16.6042833 17.1197774,16.6050333 C17.1208218,16.6050333 17.1218662,16.6050333 17.1228491,16.6050333 C17.3965346,16.6050333 17.6595306,16.494346 17.8533528,16.2968464 L23.0861207,10.973232 C23.4897377,10.5629829 23.4897377,9.89754668 23.0862436,9.4874225 Z" id="Path" fill="" fill-rule="nonzero"></path>
</svg>