<svg viewBox="0 0 96 96" version="1.1" xmlns="http://www.w3.org/2000/svg" xmlns:xlink="http://www.w3.org/1999/xlink">
    <path d="M48,96 C21.490332,96 0,74.509668 0,48 C0,21.490332 21.490332,0 48,0 C74.509668,0 96,21.490332 96,48 C96,74.509668 74.509668,96 48,96 Z M48,19 C45.2385763,19 43,21.2385763 43,24 L43,59 C43,61.7614237 45.2385763,64 48,64 C50.7614237,64 53,61.7614237 53,59 L53,24 C53,21.2385763 50.7614237,19 48,19 Z M48.5,69 L47.5,69 C45.0147186,69 43,71.0147186 43,73.5 C43,75.9852814 45.0147186,78 47.5,78 L48.5,78 C50.9852814,78 53,75.9852814 53,73.5 C53,71.0147186 50.9852814,69 48.5,69 Z"></path>
</svg>