<svg viewBox="0 0 96 96" version="1.1" xmlns="http://www.w3.org/2000/svg" xmlns:xlink="http://www.w3.org/1999/xlink">
    <path d="M48,96 C21.490332,96 0,74.509668 0,48 C0,21.490332 21.490332,0 48,0 C74.509668,0 96,21.490332 96,48 C96,74.509668 74.509668,96 48,96 Z M48,41.4289322 L34.2114178,27.64035 C32.2587963,25.6877285 29.0929714,25.6877285 27.14035,27.64035 C25.1877285,29.5929714 25.1877285,32.7587963 27.14035,34.7114178 L40.9289322,48.5 L27.14035,62.2885822 C25.1877285,64.2412037 25.1877285,67.4070286 27.14035,69.35965 C29.0929714,71.3122715 32.2587963,71.3122715 34.2114178,69.35965 L48,55.5710678 L61.7885822,69.35965 C63.7412037,71.3122715 66.9070286,71.3122715 68.85965,69.35965 C70.8122715,67.4070286 70.8122715,64.2412037 68.85965,62.2885822 L55.0710678,48.5 L68.85965,34.7114178 C70.8122715,32.7587963 70.8122715,29.5929714 68.85965,27.64035 C66.9070286,25.6877285 63.7412037,25.6877285 61.7885822,27.64035 L48,41.4289322 Z"></path>
</svg>