<svg viewBox="0 0 96 96" version="1.1" xmlns="http://www.w3.org/2000/svg" xmlns:xlink="http://www.w3.org/1999/xlink">
    <path d="M48,96 C21.490332,96 0,74.509668 0,48 C0,21.490332 21.490332,0 48,0 C74.509668,0 96,21.490332 96,48 C96,74.509668 74.509668,96 48,96 Z M20.4400583,55.2474895 L31.71345,66.9979916 C35.5536055,71.0006695 41.7797278,71.0006695 45.6198833,66.9979916 L76.5599417,34.7484937 C78.4800194,32.7471547 78.4800194,29.5023432 76.5599417,27.5010042 C74.6398639,25.4996653 71.5268028,25.4996653 69.606725,27.5010042 L38.6666667,59.7505021 L27.393275,48 C25.4731972,45.998661 22.3601361,45.998661 20.4400583,48 C18.5199806,50.001339 18.5199806,53.2461505 20.4400583,55.2474895 Z" ></path>
</svg>