<svg version="1.1" xmlns="http://www.w3.org/2000/svg" xmlns:xlink="http://www.w3.org/1999/xlink" x="0px" y="0px"
	 viewBox="0 0 500 500" style="enable-background:new 0 0 500 500;" xml:space="preserve">
<path d="M413.98,1H181.7c-24.26,0-43.93,19.67-43.93,43.93v38.06H91.88c-27.5,0-49.8,22.3-49.8,49.8V449.2
	c0,27.5,22.3,49.8,49.8,49.8h220.54c27.5,0,49.8-22.3,49.8-49.8v-32.19h51.76c24.26,0,43.93-19.67,43.93-43.93V44.93
	C457.92,20.67,438.25,1,413.98,1z M329.15,449.2c-0.1,9.16-7.55,16.54-16.72,16.54H92.77c-9.16,0-16.62-7.38-16.72-16.54
	l-0.89-316.41c0.1-9.16,7.55-16.54,16.72-16.54h220.54c9.16,0,16.62,7.38,16.72,16.54V449.2z M424.83,373.08
	c-0.1,5.92-4.93,10.67-10.85,10.67h-51.04V132.79c0-27.5-22.3-49.8-49.8-49.8H170.85V44.93c0.1-5.92,4.93-10.67,10.85-10.67h232.28
	c5.92,0,10.75,4.75,10.85,10.67V373.08z"/>
</svg>
