<svg xmlns="http://www.w3.org/2000/svg" viewBox="0 0 58 60">
                               <path d="M85.163 54.742c3.855-4.148 10.098-4.946 14.86-1.9 2.592 1.607 4.435 4.191 5.117 7.175.73 2.936.299 6.043-1.204 8.665 2.722 2.43 5.411 4.865 8.151 7.231.549.442.88 1.101.91 1.807.03.707-.244 1.391-.753 1.879-.188.176-.345.378-.52.561-.407.497-1 .8-1.64.836-.638.036-1.262-.198-1.721-.646-2.199-1.957-4.395-3.913-6.59-5.869-.194-.19-.407-.391-.627-.574l-1.254-1.016c-5.392 3.445-12.258 1.54-15.619-3.099-3.338-4.579-2.964-10.901.89-15.05zM68.154 25.261c10.592-6.625 24.292-5.43 33.578 2.929 9.286 8.359 11.91 21.859 6.432 33.088-.075-.657-.189-1.308-.342-1.95-.437-1.84-1.224-3.58-2.318-5.123.319-1.33.52-2.687.602-4.052h-5.065c-4.72-2.87-10.647-2.87-15.367 0H84.18v1.057c-.607.484-1.176 1.013-1.704 1.583-.202.253-.417.513-.633.779v-3.42H71.447c.072 3.505.55 6.99 1.424 10.385 1.983-.415 3.99-.702 6.01-.861-.165.776-.269 1.563-.311 2.355v.038c-1.686.148-3.362.389-5.021.722 1.33 3.97 3.204 7.11 5.37 8.903.915.16 1.838.267 2.766.323 1.353 1.73 3.072 3.14 5.034 4.128.32.165.65.317.987.456-1.546.262-3.11.395-4.679.399-12.493.012-23.483-8.256-26.935-20.264-3.452-12.008 1.47-24.85 12.062-31.475zm3.065 38.081c-1.63.434-3.225.995-4.768 1.678 2.313 2.398 5.12 4.264 8.225 5.47-.652-.928-1.232-1.906-1.735-2.925-.675-1.364-1.251-2.775-1.722-4.223zm25.31-7.251c-2.7-1.133-5.813-.516-7.885 1.562-2.072 2.078-2.695 5.208-1.58 7.93 1.117 2.72 3.752 4.497 6.677 4.5 1.917.006 3.757-.755 5.115-2.117s2.12-3.211 2.12-5.14c.008-2.944-1.747-5.603-4.447-6.735zm-27.444-5.938h-9.117c.248 4.74 1.955 9.286 4.888 13.018 1.832-.868 3.739-1.568 5.698-2.09-.907-3.574-1.4-7.241-1.469-10.928zm32.114-15.38c-1.832.868-3.74 1.567-5.699 2.089.907 3.574 1.4 7.241 1.47 10.929h9.136c-.254-4.742-1.968-9.29-4.907-13.019zm-8.016 2.646c-2.955.611-5.96.948-8.978 1.007v9.365h10.403c-.073-3.5-.551-6.981-1.425-10.372zm-20.312-.006c-.873 3.393-1.351 6.875-1.424 10.378h10.396v-9.365c-3.015-.061-6.018-.4-8.972-1.013zm-8.034-2.64c-2.928 3.732-4.63 8.28-4.87 13.018h9.1c.068-3.688.561-7.355 1.468-10.93-1.958-.524-3.865-1.223-5.698-2.089zm19.368-8.86v10.151c2.788-.056 5.566-.361 8.3-.912-1.329-3.97-3.203-7.117-5.369-8.903-.969-.173-1.948-.285-2.931-.335zm-2.362.014c-.98.05-1.958.162-2.925.335v-.013c-2.165 1.786-4.04 4.927-5.37 8.89 2.732.556 5.508.863 8.295.919zm9.536 1.494c.65.933 1.23 1.913 1.734 2.932.677 1.363 1.253 2.775 1.723 4.223 1.63-.425 3.225-.98 4.767-1.659-2.315-2.402-5.12-4.276-8.224-5.496zm-16.703.025c-3.1 1.204-5.906 3.061-8.225 5.446 1.542.687 3.136 1.25 4.768 1.684.472-1.435 1.047-2.834 1.722-4.185.503-1.02 1.083-2 1.735-2.932z" transform="translate(-471 -383) translate(387 222) translate(29 140)"/>
</svg>
