<?xml version="1.0" encoding="UTF-8"?>
<svg viewBox="0 0 24 27" version="1.1" xmlns="http://www.w3.org/2000/svg" xmlns:xlink="http://www.w3.org/1999/xlink">
            <path d="M5.0901757,14.367022 C4.48807166,14.367022 4,14.814722 4,15.367022 C4,15.919322 4.48807166,16.367022 5.0901757,16.367022 L11.9098243,16.367022 C12.5119283,16.367022 13,15.919322 13,15.367022 C13,14.814722 12.5119283,14.367022 11.9098243,14.367022 L5.0901757,14.367022 Z" id="Path"></path>
            <path d="M5.0901757,10.367022 C4.48807166,10.367022 4,10.814722 4,11.367022 C4,11.919322 4.48807166,12.367022 5.0901757,12.367022 L11.9098243,12.367022 C12.5119283,12.367022 13,11.919322 13,11.367022 C13,10.814722 12.5119283,10.367022 11.9098243,10.367022 L5.0901757,10.367022 Z" id="Path-Copy"></path>
            <path d="M7.59978467,23.9176758 L4.13906265,23.9176758 C2.99792308,23.9176758 2.36957061,23.4245532 2.36957061,22.304522 L2.36957061,4.42952199 C2.36957061,3.30949074 2.99792308,2.39827199 4.13906265,2.39827199 L16.8609373,2.39827199 C18.0020769,2.39827199 18.9304687,3.30949074 18.9304687,4.42952199 L18.9304687,10.6756157 C18.9304687,11.2365454 19.788741,11.367022 20.3602421,11.367022 C20.9317432,11.367022 21.4584861,11.2365454 21.4584861,10.6756157 L21.4584861,4.42952199 C21.4584861,2.18945949 19.2822791,0 17,0 L4.13906265,0 C1.8567835,0 0,2.18945949 0,4.42952199 L0,22.304522 C0,24.5445845 1.8567835,26.367022 4.13906265,26.367022 L7.59978467,26.367022 C8.17128575,26.367022 8.5,25.6834189 8.5,25.1224892 C8.5,24.5615595 8.17128575,23.9176758 7.59978467,23.9176758 Z" id="Path"></path>
            <path d="M23.0573223,15.244504 C21.8004814,14.0746864 19.7554958,14.0746364 18.4994608,15.2437039 L12.6003028,20.7222546 C12.4750163,20.8386163 12.3826094,20.9819307 12.3311409,21.1395465 L11.0464168,25.0761922 C10.93252,25.4252273 11.0317499,25.8042154 11.3054247,26.0652917 C11.510439,26.2608613 11.788949,26.367022 12.0746044,26.367022 C12.1701811,26.367022 12.266671,26.3551208 12.3613881,26.3306683 L16.6983327,25.2125059 C16.8768069,25.1665013 17.039486,25.0783425 17.1705748,24.9565302 L23.057376,19.4876305 C24.3142169,18.3178129 24.3142169,16.4144216 23.0573223,15.244504 Z M15.85238,23.3551192 L13.6705033,23.9176758 L14.3090241,21.9610291 L18.2894501,18.2644075 L19.8093282,19.6790497 L15.85238,23.3551192 Z M21.5385724,18.0726883 L21.3303883,18.2660577 L19.8107788,16.8516655 L20.0182645,16.6589461 C20.4372114,16.269007 21.1188733,16.269007 21.5378202,16.6589461 C21.9567672,17.0488853 21.9567672,17.6833491 21.5385724,18.0726883 Z" id="Shape"></path>
            <path d="M15.9430894,6.36702199 L5.05691057,6.36702199 C4.47317886,6.36702199 4,6.81472199 4,7.36702199 C4,7.91932199 4.47317886,8.36702199 5.05691057,8.36702199 L15.9430894,8.36702199 C16.5268211,8.36702199 17,7.91932199 17,7.36702199 C17,6.81472199 16.5268211,6.36702199 15.9430894,6.36702199 Z" id="Path"></path>
</svg>