<?xml version="1.0" encoding="utf-8"?>
<!-- Generator: Adobe Illustrator 25.3.1, SVG Export Plug-In . SVG Version: 6.00 Build 0)  -->
<svg version="1.1" id="Layer_1" xmlns="http://www.w3.org/2000/svg" xmlns:xlink="http://www.w3.org/1999/xlink" x="0px" y="0px"
	 viewBox="0 0 24 24" style="enable-background:new 0 0 24 24;" xml:space="preserve">
<g>
	<path d="M21,4L21,4L10.6,4L9.4,1.7C8.9,0.6,7.9,0,6.8,0H3C1.3,0,0,1.3,0,3v16.5c0,1.7,1.3,3,3,3h2.5c0.6,0,1-0.4,1-1
		c0-0.6-0.4-1-1-1H3c-0.6,0-1-0.4-1-1v-9h17c0.6,0,1-0.4,1-1c0-0.6-0.4-1-1-1H2V3c0-0.6,0.4-1,1-1h3.8c0.4,0,0.7,0.2,0.9,0.6
		l1.4,2.9C9.3,5.8,9.6,6,10,6h11c0.6,0,1,0.4,1,1v12.5c0,0.6-0.4,1-1,1h-2.5c-0.6,0-1,0.4-1,1c0,0.6,0.4,1,1,1H21c1.7,0,3-1.3,3-3V7
		C24,5.3,22.7,4,21,4z"/>
	<path d="M15.7,19.3c-0.4-0.4-1-0.4-1.4,0c0,0,0,0,0,0L13,20.6v-7.1c0-0.6-0.4-1-1-1c-0.6,0-1,0.4-1,1v7.1l-1.3-1.3
		c-0.4-0.4-1-0.4-1.4,0c-0.4,0.4-0.4,1,0,1.4l3,3c0.2,0.2,0.5,0.3,0.7,0.3s0.5-0.1,0.7-0.3l3-3C16.1,20.3,16.1,19.7,15.7,19.3
		C15.7,19.3,15.7,19.3,15.7,19.3z"/>
</g>
</svg>