<?xml version="1.0" encoding="UTF-8"?>
<svg viewBox="0 0 24 24" version="1.1" xmlns="http://www.w3.org/2000/svg" xmlns:xlink="http://www.w3.org/1999/xlink">

        <path d="M19,15.8760072 L19,14.5351838 L16.6662628,12.9793589 C16.3766644,12.7862934 16.1424632,12.5209944 15.9868088,12.2096855 L15.2710079,10.7780837 C15.057498,10.351064 15.0037853,9.86175321 15.1195773,9.39858531 L15.8404914,6.51492875 C15.9521203,6.06841305 16.2089709,5.68873533 16.5530676,5.42116145 C15.2607448,4.52508372 13.6916923,4 12,4 C10.5937487,4 9.27224261,4.36283707 8.12399283,5 L9.88196601,5 C10.8158701,5 11.572949,5.75707888 11.572949,6.69098301 C11.572949,6.95349982 11.5118283,7.21241142 11.3944272,7.4472136 L11,8.23606798 L11,9.58578644 C11,10.1162194 10.7892863,10.6249272 10.4142136,11 L8.82185442,12.5923591 C8.66985178,12.7443618 8.49433786,12.8708651 8.30206804,12.967 L7,13.618034 L7,14.5 L10.2,16.9 C10.7036117,17.2777088 11,17.8704854 11,18.5 L11,19.9381062 C11.3275942,19.9789567 11.6613397,20 12,20 C15.0120267,20 17.6352711,18.3354247 19,15.8760072 Z M19.9630829,12.7735382 C19.9875058,12.5189873 20,12.2609528 20,12 C20,10.1081066 19.3432817,8.36959794 18.245371,7 L17.7807764,7 L17.0598623,9.88365656 L17.7756632,11.3152584 L19.9630829,12.7735382 Z M9,19.418483 L9,18.5 L5.8,16.1 C5.29638831,15.7222912 5,15.1295146 5,14.5 L5,13.618034 C5,12.8604899 5.42800475,12.1679636 6.10557281,11.8291796 L7.40764085,11.1781456 L9,9.58578644 L9,8.23606798 C9,7.92557779 9.07229018,7.61935166 9.21114562,7.34164079 L9.38196601,7 L5.75462905,7 C4.65671832,8.36959794 4,10.1081066 4,12 C4,15.3573776 6.06816966,18.2317082 9,19.418483 Z M12,22 C6.4771525,22 2,17.5228475 2,12 C2,6.4771525 6.4771525,2 12,2 C17.5228475,2 22,6.4771525 22,12 C22,17.5228475 17.5228475,22 12,22 Z" id="path-1"></path>

</svg>