<svg xmlns="http://www.w3.org/2000/svg" xmlns:xlink="http://www.w3.org/1999/xlink" viewBox="0 0 24 24">
        <path id="a" d="M14.75 3.083H6.667a.584.584 0 0 0-.584.584v16.666c0 .322.262.584.584.584h11.666a.584.584 0 0 0 .584-.584V7.25h-2.25a1.919 1.919 0 0 1-1.917-1.917v-2.25zm1.333 2.25c0 .322.262.584.584.584h1.307l-1.89-1.89v1.306zm-.195-3.388l4.167 4.167a.666.666 0 0 1 .195.471v13.75c0 1.057-.86 1.917-1.917 1.917H6.667a1.919 1.919 0 0 1-1.917-1.917V3.667c0-1.057.86-1.917 1.917-1.917h8.75c.177 0 .346.07.471.195zm.54 7.305V9c.316 0 .572.298.572.667 0 .368-.256.666-.571.666H8.57c-.315 0-.571-.298-.571-.666C8 9.298 8.256 9 8.571 9h7.858v.25zm0 4V13c.316 0 .572.298.572.667 0 .368-.256.666-.571.666H8.57c-.315 0-.571-.298-.571-.666 0-.369.256-.667.571-.667h7.858v.25zm0 4V17c.316 0 .572.298.572.667 0 .368-.256.666-.571.666H8.57c-.315 0-.571-.298-.571-.666 0-.369.256-.667.571-.667h7.858v.25z"/>

</svg>
