<?xml version="1.0" encoding="UTF-8"?>
<svg viewBox="0 0 36 36" version="1.1" xmlns="http://www.w3.org/2000/svg" xmlns:xlink="http://www.w3.org/1999/xlink">
        <path d="M21.8124291,12.4229707 L24.2663094,13.6154458 L23.79766,11.089743 L25.7828908,9.30103034 L23.0393692,8.93253527 L21.8124291,6.63457494 L20.585489,8.93253527 L17.8419674,9.30103034 L19.8271982,11.089743 L19.3585488,13.6154458 L21.8124291,12.4229707 Z M19.5592827,15.4830426 C18.906858,15.8000916 18.0999068,15.5682314 17.7569068,14.9651684 C17.6203224,14.7250256 17.5731905,14.449961 17.6228077,14.182558 L18.0769902,11.734822 L16.1530422,10.0013258 C15.6252195,9.52575227 15.6144193,8.74471223 16.1289192,8.256824 C16.3337958,8.06254435 16.6022457,7.93611106 16.8927098,7.89709749 L19.5515407,7.53997762 L20.740606,5.31295383 C21.0668183,4.70198426 21.8670946,4.45113515 22.5280731,4.75266666 C22.7912782,4.87273809 23.0043212,5.06966255 23.1342207,5.31295383 L24.323286,7.53997762 L26.9821169,7.89709749 C27.7115499,7.99507102 28.2169481,8.62107778 28.1109553,9.29532273 C28.0687484,9.56381061 27.9319663,9.8119499 27.7217845,10.0013258 L25.7978364,11.734822 L26.252019,14.182558 C26.376621,14.8540786 25.888698,15.4918211 25.1622123,15.6069959 C24.8729219,15.6528591 24.5753429,15.6092932 24.315544,15.4830426 L21.9374133,14.3273784 L19.5592827,15.4830426 Z" id="path-1"></path>
        <path d="M26.092643,30 L18.0793079,30 C17.6694768,30 17.2642071,29.8895944 16.907297,29.6807465 L16.8932698,29.6725346 L16.8810082,29.661788 C14.3673352,27.4633595 12.9188992,26.1940506 12.0795695,25.45847 C11.1639237,24.6560784 10.9463542,24.4654286 10.9159946,24.4449493 C10.9089809,24.4409954 10.9035368,24.4378525 10.896376,24.4334424 C10.3745722,24.1098802 9.77684469,23.931599 9.1679346,23.9180138 L9,23.914212 L9,19 L13.7118801,19 C14.3473733,19 14.9447085,19.2557374 15.3937766,19.7200692 L19.3772207,23.8369585 C19.5486866,24.0143779 19.6430518,24.249788 19.6430518,24.5 C19.6430518,24.750212 19.5486866,24.9856221 19.3773188,25.1629908 C19.0234987,25.528424 18.4479401,25.528424 18.0941689,25.1630922 L15.5824578,22.5670921 C15.4759291,22.4569401 15.3343324,22.3963133 15.1836621,22.3963133 C15.0329918,22.3963133 14.8913951,22.4569401 14.7849155,22.5670415 C14.6782889,22.6771936 14.6196294,22.8235392 14.6196294,22.979212 C14.6196294,23.1348341 14.6783379,23.2812811 14.7848665,23.3914332 L18.7680163,27.5083226 C19.1515586,27.9047281 19.6615913,28.1234608 20.2040436,28.1242212 L26.092643,28.1244239 C26.5929646,28.1244239 27,28.5451106 27,29.0622119 C27,29.5793133 26.5929646,30 26.092643,30 L26.092643,30 Z M23.0591083,22 C23.5779211,22 24,22.4485946 24,23 C24,23.5514054 23.5779211,24 23.0591083,24 L20.5145813,24 L20.4726734,23.8737837 C20.3677005,23.5576216 20.1999166,23.2756757 19.9741026,23.0355676 L19,22 L23.0591083,22 Z M24.1124828,25 C24.6018646,25 25,25.4485946 25,26 C25,26.5514054 24.6018646,27 24.1124828,27 L19.7950235,27 C19.5583683,27 19.3357693,26.8963243 19.1681965,26.7081081 L19,26.5190271 L19.2142994,26.4034594 C19.417277,26.294 19.6019286,26.1463244 19.7631689,25.9644865 C19.9762689,25.7243243 20.1345348,25.4423784 20.2335529,25.1262163 L20.2730835,25 L24.1124828,25 Z M27.0426982,27.0112873 L27.1214092,26.8093226 C27.2271905,26.5378355 27.2807879,26.2524218 27.2807879,25.9607937 C27.2807879,24.9252256 26.5967967,24.011724 25.6174222,23.7393491 L25.4119477,23.6821998 L25.4906585,23.4802352 C25.5964399,23.2087481 25.6500373,22.9233343 25.6500373,22.6317063 C25.6500373,21.3620478 24.6380478,20.3290875 23.3941656,20.3290875 L17.8054201,20.3290875 L15.6821829,18.162018 C14.9482364,17.4126959 13.9722321,17 12.9339876,17 L7.08665953,17 C6.7419732,17 6.46153846,17.286246 6.46153846,17.6380751 L6.46153846,24.29625 C6.46153846,24.6480791 6.7419732,24.9343251 7.08665953,24.9343251 L9.11319331,25.2838238 L9.12863108,25.2927568 L9.11319331,25.2838238 C11.8991133,27.6901437 13.5334516,29.1001786 14.463686,29.9053185 C15.4785021,30.7835872 15.7196358,30.9922655 15.7532836,31.0146814 C15.7610568,31.0190092 15.7670907,31.0224492 15.775027,31.0272764 C16.3788396,31.3970271 17.0703321,31.5925 17.7744359,31.5925 L26.6556668,31.5925 C27.899549,31.5925 28.9115385,30.5595396 28.9115385,29.2898811 C28.9115385,28.254313 28.2275473,27.3408114 27.2481729,27.0684366 L27.0426982,27.0112873 Z" id="Fill-1" fill="" fill-rule="nonzero"></path>
</svg>