<?xml version="1.0" encoding="UTF-8"?>
<svg viewBox="0 0 24 24" version="1.1" xmlns="http://www.w3.org/2000/svg" xmlns:xlink="http://www.w3.org/1999/xlink">
    <path d="M24,5 C24,3.34314575 22.8487322,2 21.4285714,2 L9.88285714,2 L8.96571429,0.91 C8.48194506,0.328809312 7.81726281,0.00059024368 7.12285714,0 L2.57142857,0 C1.15126779,0 0,1.34314575 0,3 L0,21 C0,22.6568542 1.15126779,24 2.57142857,24 L21.4285714,24 C22.8487322,24 24,22.6568542 24,21 L24,5 Z M21.4285714,4 C21.9019584,4 22.2857143,4.44771525 22.2857143,5 L22.2857143,6.18 C22.0108509,6.06357745 21.7209799,6.00270456 21.4285714,6 L13.5771429,6 C13.3480749,5.99889058 13.1289184,5.89085565 12.9685714,5.7 L11.5542857,4 L21.4285714,4 Z M22.2857143,21 C22.2857143,21.5522847 21.9019584,22 21.4285714,22 L2.57142857,22 C2.09804164,22 1.71428571,21.5522847 1.71428571,21 L1.71428571,3 C1.71428571,2.44771525 2.09804164,1.99998292 2.57142857,1.99998292 L7.12285714,1.99998292 C7.35489756,1.99841889 7.57757289,2.10666384 7.74,2.3 L11.7342857,7.09 C12.2180549,7.67119069 12.8827372,7.99940976 13.5771429,8 L21.4285714,8 C21.9019584,8 22.2857143,8.44771525 22.2857143,9 L22.2857143,21 Z" id="Shape"></path>
</svg>