<?xml version="1.0" encoding="UTF-8"?>
<svg viewBox="0 0 24 28" version="1.1" xmlns="http://www.w3.org/2000/svg" xmlns:xlink="http://www.w3.org/1999/xlink">
                <path d="M13,24.1041667 C6.877,24.1041667 1.89583333,19.123 1.89583333,13 C1.89583333,6.877 6.877,1.89583333 13,1.89583333 C19.123,1.89583333 24.1041667,6.877 24.1041667,13 C24.1041667,19.123 19.123,24.1041667 13,24.1041667 Z M13,4.0625 C8.07191667,4.0625 4.0625,8.07191667 4.0625,13 C4.0625,17.9280833 8.07191667,21.9375 13,21.9375 C17.9280833,21.9375 21.9375,17.9280833 21.9375,13 C21.9375,8.07191667 17.9280833,4.0625 13,4.0625 Z" id="Shape"></path>
                <path d="M13,5.95833333 C12.402,5.95833333 11.9166667,5.473 11.9166667,4.875 L11.9166667,1.08333333 C11.9166667,0.485333333 12.402,0 13,0 C13.598,0 14.0833333,0.485333333 14.0833333,1.08333333 L14.0833333,4.875 C14.0833333,5.473 13.598,5.95833333 13,5.95833333 Z" id="Path"></path>
                <path d="M24.9166667,14.0833333 L21.125,14.0833333 C20.527,14.0833333 20.0416667,13.598 20.0416667,13 C20.0416667,12.402 20.527,11.9166667 21.125,11.9166667 L24.9166667,11.9166667 C25.5146667,11.9166667 26,12.402 26,13 C26,13.598 25.5146667,14.0833333 24.9166667,14.0833333 Z" id="Path"></path>
                <path d="M13,26 C12.402,26 11.9166667,25.5146667 11.9166667,24.9166667 L11.9166667,21.125 C11.9166667,20.527 12.402,20.0416667 13,20.0416667 C13.598,20.0416667 14.0833333,20.527 14.0833333,21.125 L14.0833333,24.9166667 C14.0833333,25.5146667 13.598,26 13,26 Z" id="Path"></path>
                <path d="M4.875,14.0833333 L1.08333333,14.0833333 C0.485333333,14.0833333 0,13.598 0,13 C0,12.402 0.485333333,11.9166667 1.08333333,11.9166667 L4.875,11.9166667 C5.473,11.9166667 5.95833333,12.402 5.95833333,13 C5.95833333,13.598 5.473,14.0833333 4.875,14.0833333 Z" id="Path"></path>
                <path d="M13,16.25 C11.2081667,16.25 9.75,14.7918333 9.75,13 C9.75,11.2081667 11.2081667,9.75 13,9.75 C14.7918333,9.75 16.25,11.2081667 16.25,13 C16.25,14.7918333 14.7918333,16.25 13,16.25 Z M13,11.9166667 C12.4030833,11.9166667 11.9166667,12.4030833 11.9166667,13 C11.9166667,13.5969167 12.4030833,14.0833333 13,14.0833333 C13.5969167,14.0833333 14.0833333,13.5969167 14.0833333,13 C14.0833333,12.4030833 13.5969167,11.9166667 13,11.9166667 Z" id="Shape"></path>
</svg>