<?xml version="1.0" encoding="UTF-8"?>
<svg viewBox="0 0 35 35" version="1.1" xmlns="http://www.w3.org/2000/svg" xmlns:xlink="http://www.w3.org/1999/xlink">
            <path d="M36,20.8437009 L36,34 L28.2823432,34 L28.2823432,21.7254141 C28.2823432,18.6433997 27.1680629,16.5386649 24.373729,16.5386649 C22.2412867,16.5386649 20.9744836,17.9556634 20.4150412,19.3277229 C20.2118693,19.8180693 20.1594935,20.4989794 20.1594935,21.1867157 L20.1594935,33.9994312 L12.4412611,33.9994312 C12.4412611,33.9994312 12.5448615,13.2103396 12.4412611,11.0583905 L20.1600691,11.0583905 L20.1600691,14.3093525 C20.144529,14.3349506 20.1226578,14.3599799 20.1088444,14.3844404 L20.1600691,14.3844404 L20.1600691,14.3093525 C21.1857134,12.7495734 23.0148366,10.5196922 27.1156872,10.5196922 C32.1932596,10.5196922 36,13.7985277 36,20.8437009 L36,20.8437009 Z M4.36733389,0 C1.72724947,0 0,1.71279906 0,3.96315878 C0,6.16573532 1.67717593,7.92802409 4.26603568,7.92802409 L4.31610923,7.92802409 C7.00799386,7.92802409 8.68171644,6.16573532 8.68171644,3.96315878 C8.63049178,1.71279906 7.00799386,0 4.36733389,0 L4.36733389,0 Z M0.458719703,34 L8.17407431,34 L8.17407431,11.0583905 L0.458719703,11.0583905 L0.458719703,34 Z" id="Shape"></path>
</svg>