<svg viewBox="0 0 24 24" xmlns="http://www.w3.org/2000/svg">
        <path d="M18.364 3.725C16.664 1.968 14.404 1 12 1s-4.664.968-6.364 2.725C3.936 5.483 3 7.82 3 10.305c0 5.028 4.598 9.21 7.069 11.456.343.313.64.582.875.81a1.515 1.515 0 0 0 2.112 0c.236-.228.532-.497.875-.81C16.401 19.515 21 15.333 21 10.305c0-2.485-.936-4.822-2.636-6.58zm-5.256 17.069c-.35.319-.654.594-.903.836a.294.294 0 0 1-.41 0c-.25-.242-.552-.517-.903-.836-2.323-2.112-6.646-6.044-6.646-10.49 0-4.42 3.479-8.015 7.754-8.015 4.275 0 7.753 3.596 7.753 8.016 0 4.445-4.322 8.377-6.645 10.489z"/>
        <path d="M12 6c-2.206 0-4 1.794-4 4s1.794 4 4 4 4-1.794 4-4-1.794-4-4-4zm0 6.743A2.746 2.746 0 0 1 9.257 10 2.746 2.746 0 0 1 12 7.257 2.746 2.746 0 0 1 14.743 10 2.746 2.746 0 0 1 12 12.743z"/>
</svg>
