<svg width="22" height="22" viewBox="0 0 22 22" xmlns="http://www.w3.org/2000/svg">
    <g fill="#FFF" fill-rule="nonzero" stroke="#FFF" stroke-width=".5">
        <path d="M10.967 19.272H3.492a.83.83 0 0 1-.83-.83V3.492a.83.83 0 0 1 .83-.83h7.475a.83.83 0 1 0 0-1.662H3.492A2.495 2.495 0 0 0 1 3.492v14.95a2.495 2.495 0 0 0 2.492 2.492h7.475a.83.83 0 1 0 0-1.662z"/>
        <path d="m20.753 10.375-5.05-4.983a.83.83 0 1 0-1.166 1.183l3.608 3.561h-9.67a.83.83 0 1 0 0 1.661h9.67l-3.608 3.562a.83.83 0 1 0 1.166 1.182l5.05-4.983a.832.832 0 0 0 0-1.183z"/>
    </g>
</svg>
