<?xml version="1.0" encoding="UTF-8"?>
<svg viewBox="0 0 24 24" version="1.1" xmlns="http://www.w3.org/2000/svg" xmlns:xlink="http://www.w3.org/1999/xlink">

        <path d="M4.62882204,6 L12,11.7331384 L19.371178,6 L4.62882204,6 Z M20,8.04463936 L13.2278812,13.3118429 C12.5056603,13.8735703 11.4943397,13.8735703 10.7721188,13.3118429 L4,8.04463936 L4,18 L20,18 L20,8.04463936 Z M4,4 L20,4 C21.1045695,4 22,4.8954305 22,6 L22,18 C22,19.1045695 21.1045695,20 20,20 L4,20 C2.8954305,20 2,19.1045695 2,18 L2,6 C2,4.8954305 2.8954305,4 4,4 Z" id="path-1"></path>

</svg>