<svg xmlns="http://www.w3.org/2000/svg" xmlns:xlink="http://www.w3.org/1999/xlink" viewBox="0 0 24 24">

    <path id="a" d="M19.472 3.809a2.761 2.761 0 0 0-3.905 0L4.62 14.755a.615.615 0 0 0-.157.27l-1.44 5.198a.613.613 0 0 0 .756.755l5.197-1.44a.614.614 0 0 0 .27-.158L20.192 8.434a2.764 2.764 0 0 0 0-3.905l-.72-.72zM5.957 15.154l8.96-8.96 2.889 2.89-8.96 8.96-2.89-2.89zm-.578 1.158l2.309 2.31-3.193.884.884-3.194zm13.946-8.746l-.651.65-2.89-2.889.651-.65c.6-.6 1.57-.6 2.17 0l.72.72c.598.599.598 1.57 0 2.169z"/>

</svg>
