<?xml version="1.0" encoding="UTF-8"?>
<svg viewBox="0 0 36 36" version="1.1" xmlns="http://www.w3.org/2000/svg" xmlns:xlink="http://www.w3.org/1999/xlink">
            <path d="M24.9818182,14.9391111 L24.9818182,12.4444444 C24.9818182,8.89111111 21.8496,6 18,6 C14.1504,6 11.0181818,8.89111111 11.0181818,12.4444444 L11.0181818,14.9391111 C9.53410909,15.1995556 8.4,16.5168889 8.4,18.1022222 L8.4,26.7875556 C8.4,28.5586667 9.81512727,30 11.5544727,30 L24.4455273,30 C26.1848727,30 27.6,28.5586667 27.6,26.7871111 L27.6,18.1017778 C27.6,16.5168889 26.4658909,15.1995556 24.9818182,14.9391111 Z M11.8909091,12.4444444 C11.8909091,9.38088889 14.6312727,6.88888889 18,6.88888889 C21.3687273,6.88888889 24.1090909,9.38088889 24.1090909,12.4444444 L24.1090909,14.8888889 L11.8909091,14.8888889 L11.8909091,12.4444444 Z M26.7272727,26.7871111 C26.7272727,28.0684444 25.7035636,29.1111111 24.4455273,29.1111111 L11.5544727,29.1111111 C10.2964364,29.1111111 9.27272727,28.0684444 9.27272727,26.7871111 L9.27272727,18.1017778 C9.27272727,16.8204444 10.2964364,15.7777778 11.5544727,15.7777778 L24.4455273,15.7777778 C25.7035636,15.7777778 26.7272727,16.8204444 26.7272727,18.1017778 L26.7272727,26.7871111 Z" id="Shape" stroke="" stroke-width="1.2" fill="" fill-rule="nonzero"></path>
            <path d="M18.0933333,19.2 C16.9168,19.2 15.96,20.0201143 15.96,21.0285714 L15.96,23.7714286 C15.96,24.7798857 16.9168,25.6 18.0933333,25.6 C19.2698667,25.6 20.2266667,24.7798857 20.2266667,23.7714286 L20.2266667,21.0285714 C20.2266667,20.0201143 19.2698667,19.2 18.0933333,19.2 Z M19.16,23.68 C19.16,24.1506133 18.6816,24.5333333 18.0933333,24.5333333 C17.5050667,24.5333333 17.0266667,24.1506133 17.0266667,23.68 L17.0266667,21.12 C17.0266667,20.6493867 17.5050667,20.2666667 18.0933333,20.2666667 C18.6816,20.2666667 19.16,20.6493867 19.16,21.12 L19.16,23.68 Z" id="Shape" stroke="" fill="" fill-rule="nonzero"></path>
</svg>