<?xml version="1.0" encoding="UTF-8"?>
<svg viewBox="0 0 24 24" version="1.1" xmlns="http://www.w3.org/2000/svg" xmlns:xlink="http://www.w3.org/1999/xlink">

        <path d="M9.52999894,4.76049698 C9.37106734,4.66116473 9.18741972,4.60849528 9,4.60849528 C8.44771525,4.60849528 8,5.05621053 8,5.60849528 L8,18.3915047 C8,18.5789244 8.05266944,18.7625721 8.1520017,18.9215037 C8.44471203,19.3898402 9.06166241,19.5322134 9.52999894,19.239503 L19.7564065,12.8479983 C19.8851756,12.7675176 19.9939251,12.6587681 20.0744059,12.5299989 C20.3671162,12.0616624 20.224743,11.444712 19.7564065,11.1520017 L9.52999894,4.76049698 Z M10.5899968,3.06450037 L20.8164044,9.45600509 C22.221414,10.3341361 22.6485335,12.1849872 21.7704025,13.5899968 C21.5289603,13.9763042 21.2027118,14.3025528 20.8164044,14.5439949 L10.5899968,20.9354996 C9.18498723,21.8136306 7.33413608,21.3865111 6.45600509,19.9815015 C6.15800833,19.5047067 6,18.9537639 6,18.3915047 L6,5.60849528 C6,3.95164103 7.34314575,2.60849528 9,2.60849528 C9.56225915,2.60849528 10.113202,2.76650362 10.5899968,3.06450037 Z" id="path-1"></path>

</svg>