<?xml version="1.0" encoding="UTF-8"?>
<svg viewBox="0 0 24 24" version="1.1" xmlns="http://www.w3.org/2000/svg" xmlns:xlink="http://www.w3.org/1999/xlink">
 
        <path d="M17.6568542,6.34314575 C18.0473785,6.73367004 18.0473785,7.36683502 17.6568542,7.75735931 C17.26633,8.1478836 16.633165,8.1478836 16.2426407,7.75735931 C15.1240356,6.63875419 13.613851,6 12,6 C8.6862915,6 6,8.6862915 6,12 C6,12.5522847 5.55228475,13 5,13 C4.44771525,13 4,12.5522847 4,12 C4,7.581722 7.581722,4 12,4 C14.1497362,4 16.1668946,4.85318606 17.6568542,6.34314575 Z M18,12 L17.7071068,12.2928932 C17.3165825,12.6834175 16.6834175,12.6834175 16.2928932,12.2928932 C15.9023689,11.9023689 15.9023689,11.2692039 16.2928932,10.8786797 L17.5857864,9.58578644 C18.366835,8.80473785 19.633165,8.80473785 20.4142136,9.58578644 L21.7071068,10.8786797 C22.0976311,11.2692039 22.0976311,11.9023689 21.7071068,12.2928932 C21.3165825,12.6834175 20.6834175,12.6834175 20.2928932,12.2928932 L20,12 C20,16.418278 16.418278,20 12,20 C9.85026384,20 7.83310545,19.1468139 6.34314575,17.6568542 C5.95262146,17.26633 5.95262146,16.633165 6.34314575,16.2426407 C6.73367004,15.8521164 7.36683502,15.8521164 7.75735931,16.2426407 C8.87596444,17.3612458 10.386149,18 12,18 C15.3137085,18 18,15.3137085 18,12 Z M3.70710678,11.7071068 L5,13 L6.29289322,11.7071068 C6.68341751,11.3165825 7.31658249,11.3165825 7.70710678,11.7071068 C8.09763107,12.0976311 8.09763107,12.7307961 7.70710678,13.1213203 L6.41421356,14.4142136 C5.63316498,15.1952621 4.36683502,15.1952621 3.58578644,14.4142136 L2.29289322,13.1213203 C1.90236893,12.7307961 1.90236893,12.0976311 2.29289322,11.7071068 C2.68341751,11.3165825 3.31658249,11.3165825 3.70710678,11.7071068 Z" id="path-1"></path>

</svg>