<?xml version="1.0" encoding="UTF-8"?>
<svg viewBox="0 0 24 24" version="1.1" xmlns="http://www.w3.org/2000/svg" xmlns:xlink="http://www.w3.org/1999/xlink">

        <path d="M14.2310604,7.29355813 L13.6601528,7.02234947 L13.6601528,5.13282413 C13.6601528,4.58053938 13.2124375,4.13282413 12.6601528,4.13282413 L11.3398472,4.13282413 C10.7875625,4.13282413 10.3398472,4.58053938 10.3398472,5.13282413 L10.3398472,7.02234947 L9.76893956,7.29355813 C9.51561276,7.41390056 9.27243839,7.5546446 9.04172169,7.71425933 L8.52106821,8.07445851 L6.88292762,7.1286776 C6.404635,6.85253522 5.7930446,7.01641038 5.51690222,7.494703 L4.85674946,8.63812113 C4.58060708,9.11641375 4.74448224,9.72800416 5.22277486,10.0041465 L6.85993377,10.9493607 L6.8096927,11.5790655 C6.79857106,11.7184604 6.79297689,11.8588368 6.79297689,12 C6.79297689,12.1411632 6.79857106,12.2815396 6.8096927,12.4209345 L6.85993377,13.0506393 L5.22277486,13.9958535 C4.74448224,14.2719958 4.58060708,14.8835863 4.85674946,15.3618789 L5.51690222,16.505297 C5.7930446,16.9835896 6.404635,17.1474648 6.88292762,16.8713224 L8.52106821,15.9255415 L9.04172169,16.2857407 C9.27243839,16.4453554 9.51561276,16.5860994 9.76893956,16.7064419 L10.3398472,16.9776505 L10.3398472,18.8671759 C10.3398472,19.4194606 10.7875625,19.8671759 11.3398472,19.8671759 L12.6601528,19.8671759 C13.2124375,19.8671759 13.6601528,19.4194606 13.6601528,18.8671759 L13.6601528,16.9776505 L14.2310604,16.7064419 C14.4843872,16.5860994 14.7275616,16.4453554 14.9582783,16.2857407 L15.4789318,15.9255415 L17.1170724,16.8713224 C17.595365,17.1474648 18.2069554,16.9835896 18.4830978,16.505297 L19.1432505,15.3618789 C19.4193929,14.8835863 19.2555178,14.2719958 18.7772251,13.9958535 L17.1400662,13.0506393 L17.1903073,12.4209345 C17.2014289,12.2815396 17.2070231,12.1411632 17.2070231,12 C17.2070231,11.8588368 17.2014289,11.7184604 17.1903073,11.5790655 L17.1400662,10.9493607 L18.7772251,10.0041465 C19.2555178,9.72800416 19.4193929,9.11641375 19.1432505,8.63812113 L18.4830978,7.494703 C18.2069554,7.01641038 17.595365,6.85253522 17.1170724,7.1286776 L15.4789318,8.07445851 L14.9582783,7.71425933 C14.7275616,7.5546446 14.4843872,7.41390056 14.2310604,7.29355813 Z M16.1170724,5.39662679 C17.5519502,4.56819967 19.3867215,5.05982513 20.2151486,6.494703 L20.8753013,7.63812113 C21.7037285,9.072999 21.212103,10.9077702 19.7772251,11.7361973 L19.3203055,12 L19.7772251,12.2638027 C21.212103,13.0922298 21.7037285,14.927001 20.8753013,16.3618789 L20.2151486,17.505297 C19.3867215,18.9401749 17.5519502,19.4318003 16.1170724,18.6033732 L15.6601528,18.3395705 L15.6601528,18.8671759 C15.6601528,20.5240301 14.317007,21.8671759 12.6601528,21.8671759 L11.3398472,21.8671759 C9.68299299,21.8671759 8.33984724,20.5240301 8.33984724,18.8671759 L8.33984724,18.3395705 L7.88292762,18.6033732 C6.44804975,19.4318003 4.61327854,18.9401749 3.78485141,17.505297 L3.12469865,16.3618789 C2.29627153,14.927001 2.78789699,13.0922298 4.22277486,12.2638027 L4.67969448,12 L4.22277486,11.7361973 C2.78789699,10.9077702 2.29627153,9.072999 3.12469865,7.63812113 L3.78485141,6.494703 C4.61327854,5.05982513 6.44804975,4.56819967 7.88292762,5.39662679 L8.33984724,5.66042945 L8.33984724,5.13282413 C8.33984724,3.47596988 9.68299299,2.13282413 11.3398472,2.13282413 L12.6601528,2.13282413 C14.317007,2.13282413 15.6601528,3.47596988 15.6601528,5.13282413 L15.6601528,5.66042945 L16.1170724,5.39662679 Z M12,15 C13.6568542,15 15,13.6568542 15,12 C15,10.3431458 13.6568542,9 12,9 C10.3431458,9 9,10.3431458 9,12 C9,13.6568542 10.3431458,15 12,15 Z M12,13 C11.4477153,13 11,12.5522847 11,12 C11,11.4477153 11.4477153,11 12,11 C12.5522847,11 13,11.4477153 13,12 C13,12.5522847 12.5522847,13 12,13 Z" id="path-1"></path>

</svg>