<?xml version="1.0" encoding="UTF-8"?>
<svg viewBox="0 0 24 24" version="1.1" xmlns="http://www.w3.org/2000/svg" xmlns:xlink="http://www.w3.org/1999/xlink">

        <path d="M20,17.8292943 L20,19 C20,20.6568542 18.6568542,22 17,22 L5,22 C3.34314575,22 2,20.6568542 2,19 L2,18 L2,5 C2,3.34314575 3.34314575,2 5,2 L19,2 C20.6568542,2 22,3.34314575 22,5 L22,15 C22,16.3062188 21.1651924,17.4174579 20,17.8292943 Z M4,16 L19,16 C19.5522847,16 20,15.5522847 20,15 L20,5 C20,4.44771525 19.5522847,4 19,4 L5,4 C4.44771525,4 4,4.44771525 4,5 L4,16 Z M4,18 L4,19 C4,19.5522847 4.44771525,20 5,20 L17,20 C17.5522847,20 18,19.5522847 18,19 L18,18 L4,18 Z M16,12 C14.8954305,12 14,11.1045695 14,10 C14,8.8954305 14.8954305,8 16,8 C17.1045695,8 18,8.8954305 18,10 C18,11.1045695 17.1045695,12 16,12 Z" id="path-1"></path>

</svg>